<?xml version="1.0" standalone="no"?>
<!DOCTYPE svg PUBLIC "-//W3C//DTD SVG 20010904//EN"
 "http://www.w3.org/TR/2001/REC-SVG-20010904/DTD/svg10.dtd">
<svg version="1.0" xmlns="http://www.w3.org/2000/svg"
 width="800.000000pt" height="800.000000pt" viewBox="0 0 800.000000 800.000000"
 preserveAspectRatio="xMidYMid meet">
<metadata>
Created by potrace 1.14, written by Peter Selinger 2001-2017
</metadata>
<g transform="translate(0.000000,800.000000) scale(0.100000,-0.100000)"
fill="#000000" stroke="none">
<path d="M5399 7272 c-136 -136 -249 -256 -252 -267 -4 -11 -8 -31 -11 -45 -2
-14 -18 -93 -35 -175 -17 -83 -33 -159 -35 -170 -3 -11 -9 -40 -15 -65 -5 -25
-12 -61 -16 -80 -4 -29 -15 -80 -20 -100 -1 -4 -12 -56 -21 -100 -1 -8 -19
-94 -39 -190 -20 -96 -39 -184 -41 -195 -2 -11 -18 -87 -35 -170 -17 -82 -33
-159 -35 -170 -2 -11 -17 -83 -33 -160 -16 -77 -32 -151 -35 -165 -2 -14 -20
-101 -40 -195 -19 -93 -52 -251 -72 -350 -20 -99 -38 -181 -39 -183 -2 -2
-161 -38 -213 -47 -18 -3 -65 -12 -105 -21 -39 -8 -83 -18 -97 -20 -14 -3 -67
-14 -119 -25 -51 -12 -101 -22 -110 -24 -47 -9 -292 -60 -481 -99 -682 -142
-893 -186 -915 -190 -14 -3 -29 -7 -34 -11 -6 -3 -19 11 -30 32 -11 21 -34 59
-53 85 -220 306 -604 427 -961 303 -119 -42 -259 -132 -322 -207 -80 -95 -201
-157 -317 -163 -83 -4 -136 7 -213 45 -135 67 -216 190 -230 350 -8 91 -25
135 -71 177 -47 42 -94 57 -162 50 -112 -12 -186 -100 -184 -220 2 -139 47
-308 103 -389 11 -14 19 -29 19 -33 0 -8 60 -86 104 -135 101 -112 287 -219
427 -245 13 -3 36 -7 50 -10 50 -11 194 -8 217 4 21 11 22 10 23 -21 11 -357
219 -656 541 -776 32 -12 68 -23 80 -26 13 -2 41 -8 64 -14 52 -12 239 -13
290 -2 21 5 50 11 64 14 128 26 315 137 416 247 83 91 167 244 189 344 1 6 5
21 8 35 9 33 15 78 16 113 1 29 19 40 77 50 16 3 108 21 204 42 96 20 186 38
200 41 14 3 32 7 40 9 8 2 30 7 48 10 18 3 65 12 105 21 95 20 93 20 237 49
69 14 134 27 145 29 287 62 791 167 823 172 17 3 32 3 32 1 0 -2 -18 -89 -39
-193 -22 -104 -42 -200 -45 -214 -2 -14 -11 -57 -20 -95 -8 -39 -17 -82 -20
-95 -2 -14 -14 -70 -25 -126 -26 -120 -30 -140 -37 -179 -2 -16 -9 -46 -14
-65 -5 -19 -11 -48 -14 -65 -3 -16 -21 -106 -41 -200 -19 -93 -38 -182 -40
-198 -3 -15 -12 -60 -21 -100 -8 -39 -18 -83 -20 -97 -3 -14 -7 -33 -10 -42
-3 -10 -7 -29 -10 -43 -2 -14 -6 -35 -9 -47 -2 -13 -9 -51 -16 -84 l-12 -61
-68 -7 c-133 -12 -283 -73 -399 -161 -458 -350 -435 -1051 46 -1366 68 -46
191 -101 249 -113 17 -4 41 -9 55 -12 14 -3 72 -8 130 -10 234 -8 436 70 607
233 114 109 215 293 238 433 4 25 9 54 11 65 6 31 5 186 -1 220 -21 108 -41
171 -80 250 -73 149 -174 260 -318 348 -34 21 -61 41 -61 45 1 4 16 75 33 157
30 146 37 175 45 214 2 10 7 34 10 52 3 19 12 66 22 104 9 39 18 81 20 95 10
54 85 417 94 455 5 22 17 76 25 120 9 44 20 98 25 120 5 22 26 119 45 215 35
171 100 484 110 526 4 17 17 24 65 33 33 7 62 12 65 12 2 1 31 7 64 15 33 7
73 16 88 19 34 6 54 10 113 24 25 5 61 13 80 16 19 3 55 11 80 16 25 6 59 13
75 16 17 2 82 16 145 29 90 20 371 78 525 109 11 3 52 11 90 19 39 9 81 18 95
20 23 4 97 19 145 30 107 23 367 76 392 81 18 3 61 12 95 20 35 8 79 17 98 20
19 3 73 15 120 25 47 10 96 21 110 24 14 2 40 8 58 12 25 5 88 62 277 251 273
272 290 299 180 273 -38 -8 -56 -12 -122 -26 -16 -3 -59 -12 -98 -20 -38 -8
-232 -48 -430 -90 -198 -41 -468 -97 -600 -125 -132 -28 -314 -65 -405 -84
-91 -19 -250 -52 -355 -74 -104 -22 -269 -56 -365 -76 -96 -20 -184 -39 -195
-41 -49 -11 -122 -26 -150 -30 -16 -3 -46 -9 -65 -15 -84 -22 -82 -32 -39 174
21 101 40 195 43 208 3 13 14 67 25 119 24 112 108 514 115 550 2 14 25 124
51 245 74 352 85 409 90 435 2 14 25 122 50 240 25 118 57 269 70 335 13 66
32 154 41 195 8 41 18 84 20 95 2 11 6 31 9 45 3 14 7 34 9 45 2 11 13 65 25
119 20 100 20 116 -2 116 -7 -1 -123 -112 -258 -248z m-3499 -3182 c66 -18
110 -43 168 -95 191 -172 181 -477 -20 -636 -49 -38 -100 -66 -143 -75 -96
-22 -106 -22 -200 -10 -61 9 -158 61 -212 115 -150 149 -168 377 -43 546 104
141 280 201 450 155z m2410 -2395 c265 -95 367 -410 207 -638 -143 -203 -442
-237 -623 -70 -174 161 -185 420 -25 595 85 93 197 138 326 133 39 -2 90 -11
115 -20z"/>
</g>
</svg>
